<svg width="184" height="195" viewBox="0 0 184 195" fill="none" xmlns="http://www.w3.org/2000/svg">
<rect width="184" height="195" fill="white"/>
<path d="M62.2083 80.1513C63.9118 67.1017 62.5983 46.437 62.5983 46.437L68.1667 39H116.36L121.603 45.2105C121.603 45.2105 120.63 67.0664 122.25 80.1513C123.117 87.1552 125 98 125 98C125 98 121.956 88.1258 118.125 83.126C113.186 76.6807 70.4342 77.1765 65.875 83.126C62.0436 88.1258 59 98 59 98C59 98 61.2905 87.1824 62.2083 80.1513Z" fill="url(#paint0_linear_176_2)" stroke="url(#paint1_linear_176_2)" stroke-width="2" stroke-linejoin="round"/>
<path d="M67.5875 45.783C67.7028 43.6613 69.4568 42 71.5817 42H112.418C114.543 42 116.297 43.6613 116.412 45.783L117.771 70.783C117.895 73.074 116.071 75 113.777 75H70.2232C67.9288 75 66.1047 73.074 66.2291 70.783L67.5875 45.783Z" fill="white"/>
<path d="M71.7525 39.25H112.529C115.229 39.25 116.306 39.2639 117.262 39.5683C118.04 39.8163 118.767 40.2035 119.407 40.7112C120.193 41.3345 120.806 42.2205 122.313 44.461L126.623 50.8717C127.397 52.0224 127.703 52.4835 127.924 52.9718C128.106 53.3706 128.247 53.786 128.348 54.2123C128.471 54.7343 128.512 55.2858 128.604 56.6694L130.829 90.1787C130.996 92.6941 131.115 94.4996 131.085 95.916C131.055 97.3174 130.878 98.212 130.531 98.9322C129.934 100.169 128.975 101.195 127.78 101.872C127.084 102.266 126.203 102.502 124.807 102.625C123.396 102.749 121.586 102.75 119.065 102.75H64.918C62.3998 102.75 60.5923 102.749 59.1826 102.625C57.7877 102.502 56.9075 102.267 56.2122 101.873C55.018 101.197 54.0584 100.173 53.4612 98.9372C53.1135 98.2178 52.9362 97.3242 52.9046 95.9242C52.8726 94.5094 52.9891 92.7057 53.153 90.1928L55.3684 56.2171C55.4711 54.6419 55.5171 54.0141 55.6691 53.4255C55.7932 52.945 55.9698 52.4797 56.1959 52.038C56.4728 51.4968 56.8551 50.9967 57.8237 49.7502L62.4427 43.8059C63.9697 41.8407 64.5883 41.0642 65.3449 40.5201C65.9615 40.0766 66.6486 39.7404 67.3771 39.5255C68.2711 39.262 69.2638 39.25 71.7525 39.25Z" stroke="url(#paint2_linear_176_2)" stroke-width="2.5"/>
<path d="M85.1 59.54L88.76 56.18V62.76H91.28C91.8933 62.76 92.4267 62.6533 92.88 62.44C93.3333 62.2267 93.7133 61.9467 94.02 61.6C94.3267 61.2533 94.5533 60.86 94.7 60.42C94.86 59.9667 94.94 59.5133 94.94 59.06C94.94 58.5933 94.86 58.14 94.7 57.7C94.5533 57.2467 94.3267 56.8467 94.02 56.5C93.7133 56.1533 93.3333 55.8733 92.88 55.66C92.4267 55.4467 91.8933 55.34 91.28 55.34H87.9L85.1 52H92.08C93.2 52 94.18 52.2 95.02 52.6C95.8733 53 96.58 53.5333 97.14 54.2C97.7 54.8533 98.12 55.6 98.4 56.44C98.68 57.2667 98.82 58.12 98.82 59C98.82 59.88 98.68 60.74 98.4 61.58C98.12 62.4067 97.7 63.1533 97.14 63.82C96.58 64.4733 95.8733 65 95.02 65.4C94.18 65.8 93.2 66 92.08 66H85.1V59.54Z" fill="#0E58DA"/>
<path d="M50.424 115.304L49.656 120.32H58.224L57.912 122.672H49.776C50.608 125.232 51.72 127.488 53.112 129.44C54.28 131.104 55.936 132.888 58.08 134.792L55.464 135.848C54.008 134.52 52.696 133.008 51.528 131.312C50.12 129.328 49.048 127.312 48.312 125.264C47.416 127.36 46.16 129.352 44.544 131.24C42.992 133.08 41.288 134.6 39.432 135.8L37.08 134.672C39.528 133.04 41.592 131.168 43.272 129.056C44.952 126.928 46.072 124.8 46.632 122.672H38.688L38.928 120.32H47.064L47.88 115.304H50.424ZM86.4174 134.96H67.0014L67.2654 132.656H73.6974L75.2334 118.544H69.4494L69.7134 116.336H84.3294C85.5454 116.336 86.1534 116.88 86.1534 117.968C86.1534 118.08 86.1374 118.264 86.1054 118.52L85.0254 127.736C84.9614 128.328 84.7694 128.768 84.4494 129.056C84.1294 129.344 83.6974 129.488 83.1534 129.488C82.8974 129.488 82.3054 129.408 81.3774 129.248C81.1374 129.184 80.9374 129.144 80.7774 129.128C79.8654 128.952 79.1854 128.792 78.7374 128.648L79.0014 126.296C79.4494 126.456 79.9614 126.608 80.5374 126.752C81.1294 126.88 81.6414 126.968 82.0734 127.016H82.1934C82.3694 127.016 82.4894 126.984 82.5534 126.92C82.6334 126.856 82.6894 126.736 82.7214 126.56L83.6574 118.544H77.7294L76.1934 132.656H86.6814L86.4174 134.96ZM112.019 117.224H117.563L117.299 119.408H103.763L104.027 117.224H109.427L108.827 115.136H111.347L112.019 117.224ZM104.651 115.184C104.043 116.304 103.219 117.752 102.179 119.528L100.259 135.8H97.9069L99.3229 124.184C98.9869 124.696 98.6509 125.176 98.3149 125.624H95.4109C96.5789 124.056 97.6269 122.504 98.5549 120.968C99.4829 119.416 100.595 117.488 101.891 115.184H104.651ZM104.555 120.968H116.195L115.979 123.008H104.315L104.555 120.968ZM104.171 124.64H115.979L115.763 126.656H103.931L104.171 124.64ZM114.947 135.56H102.971L103.571 130.064C103.731 128.752 104.499 128.096 105.875 128.096H113.699C114.963 128.096 115.595 128.616 115.595 129.656C115.595 129.816 115.587 129.944 115.571 130.04L114.947 135.56ZM105.635 133.568H112.763L113.147 130.064H105.995L105.635 133.568ZM137.644 115.04L136.756 116.768H142.852C143.556 116.768 144.076 116.904 144.412 117.176C144.764 117.448 144.94 117.888 144.94 118.496C144.94 118.672 144.932 118.808 144.916 118.904L143.86 127.544H141.628L142.636 118.688H130.516L129.484 127.544H127.204L128.236 118.664C128.316 117.96 128.524 117.472 128.86 117.2C129.212 116.912 129.732 116.768 130.42 116.768H134.284L135.172 115.04H137.644ZM137.62 119.24L137.332 121.928H141.46L141.244 123.608H137.596C139.356 124.632 140.572 125.392 141.244 125.888L139.948 127.208C139.404 126.744 138.42 126.008 136.996 125L136.78 127.016H134.764L134.98 125.048C133.668 126.056 132.372 126.848 131.092 127.424L130.012 126.008C131.58 125.352 133.028 124.552 134.356 123.608H130.78L130.972 121.928H135.316L135.604 119.24H137.62ZM134.428 121.544H132.484L131.596 119.384H133.444L134.428 121.544ZM139.396 119.456H141.292L140.14 121.544H138.244L139.396 119.456ZM137.26 127.568C137.18 127.888 137.076 128.208 136.948 128.528H145.564L145.324 130.496H137.716C138.644 131.408 139.764 132.152 141.076 132.728C142.196 133.256 143.732 133.776 145.684 134.288L143.932 136.04C142.188 135.528 140.612 134.888 139.204 134.12C137.796 133.352 136.548 132.384 135.46 131.216C134.404 132.56 133.068 133.632 131.452 134.432C130.124 135.104 128.58 135.608 126.82 135.944L125.236 134.264C127.156 133.832 128.764 133.336 130.06 132.776C131.372 132.2 132.452 131.44 133.3 130.496H125.908L126.148 128.528H134.548C134.676 128.176 134.788 127.856 134.884 127.568H137.26Z" fill="#064E90"/>
<path d="M53.848 149.2C53.708 149.774 53.358 150.32 52.896 150.754C52.322 151.3 51.566 151.678 50.838 151.804C49.2 152.084 47.548 152.084 45.91 152.014C45.882 149.046 46.036 145.994 46.26 143.474C46.022 143.53 45.728 143.614 45.476 143.726C45.434 143.488 45.462 143.194 45.574 142.956C45.672 142.76 45.826 142.592 46.05 142.522C47.156 142.2 48.514 141.906 49.802 141.934C50.628 141.962 51.482 142.13 52.196 142.564C52.896 142.998 53.372 143.6 53.68 144.356C54.296 145.812 54.226 147.688 53.848 149.2ZM52.924 148.71C53.162 147.59 53.218 146.33 52.896 145.238C52.7 144.566 52.364 143.95 51.804 143.516C51.356 143.166 50.782 142.97 50.194 142.928C49.186 142.858 48.22 142.928 47.31 143.18C47.072 145.742 46.918 148.444 46.932 151.076C48.22 151.09 49.676 151.076 50.894 150.796C51.37 150.684 51.846 150.376 52.21 149.998C52.56 149.62 52.826 149.172 52.924 148.71ZM69.6713 152C69.4053 152.112 69.0973 152.112 68.8453 152.014C68.6213 151.93 68.4533 151.762 68.3833 151.51C68.3273 151.286 68.2713 150.978 68.2293 150.81C67.5573 151.44 66.9133 151.804 66.1853 152C65.3873 152.21 64.5053 152.182 63.8193 151.79C63.1893 151.426 62.8253 150.74 62.8253 149.998C62.8253 149.34 63.1753 148.752 63.7073 148.36C64.2673 147.954 64.9673 147.8 65.6393 147.702C66.5073 147.562 67.2913 147.394 68.1733 147.17C68.2713 146.722 68.1593 146.288 67.8093 145.994C67.4593 145.7 66.9833 145.574 66.4933 145.574C65.8913 145.574 65.2753 145.756 64.8273 146.008C64.2953 146.302 63.7913 146.75 63.3853 147.226C63.1613 147.058 63.0213 146.792 63.0073 146.54C62.9933 146.344 63.0633 146.134 63.2033 145.994C63.6093 145.602 64.0573 145.294 64.5333 145.07C65.0793 144.804 65.6673 144.65 66.2693 144.636C66.8993 144.608 67.5433 144.748 68.1033 145.028C68.6633 145.308 68.9433 145.658 69.0693 146.078C69.1953 146.484 69.1673 147.1 69.1113 147.716C69.0413 148.346 69.0273 149.06 69.1113 149.746C69.1953 150.544 69.3773 151.328 69.6713 152ZM68.0753 148.164C67.3613 148.36 66.6893 148.486 65.9893 148.598C65.3733 148.71 64.7713 148.822 64.2533 149.172C63.9313 149.396 63.7633 149.858 63.8333 150.236C63.9453 150.754 64.4073 151.062 64.8973 151.118C65.4713 151.174 66.0033 151.062 66.4793 150.852C67.0953 150.572 67.6273 150.096 68.0613 149.522C68.0613 149.186 68.0753 148.514 68.0753 148.164ZM84.7015 145.182C83.5115 146.932 82.4755 149.564 81.8735 151.986C81.5935 152 81.1455 152 80.8655 152C80.2215 149.648 79.3815 147.38 77.9535 145.35C78.1215 145.252 78.5835 144.972 78.8075 144.832C79.9415 146.526 80.7115 148.374 81.3415 150.278C81.9995 148.36 82.7135 146.456 83.8335 144.72C84.0435 144.846 84.4915 145.084 84.7015 145.182ZM94.7458 143.39C94.4798 143.39 93.9478 143.376 93.7098 143.376V141.948H94.7318C94.7458 142.298 94.7458 142.914 94.7458 143.39ZM94.7458 152C94.4798 152 93.9758 151.986 93.7518 152C93.7518 149.998 93.7378 146.652 93.7378 144.776C93.9198 144.776 94.4238 144.79 94.7178 144.79C94.7318 146.652 94.7458 150.054 94.7458 152ZM110.304 151.412C110.304 151.636 110.192 151.79 110.024 151.916C109.814 152.056 109.534 152.126 109.31 152.154C109.324 151.888 109.338 151.314 109.338 150.922C108.918 151.44 108.442 151.804 107.826 151.972C107.112 152.168 106.3 152.084 105.656 151.734C105.012 151.37 104.536 150.712 104.284 150.026C103.962 149.144 103.962 148.01 104.228 147.114C104.452 146.344 104.942 145.588 105.628 145.14C106.23 144.748 106.972 144.608 107.7 144.72C108.386 144.832 108.764 145.098 109.226 145.658C109.184 144.272 109.1 143.222 109.002 141.948H109.968C110.22 145.266 110.332 148.094 110.304 151.412ZM109.17 149.452C109.366 148.71 109.38 147.828 109.142 147.1C108.946 146.54 108.582 146.036 108.05 145.784C107.49 145.518 106.79 145.574 106.258 145.882C105.712 146.204 105.348 146.778 105.166 147.366C104.9 148.192 104.942 149.158 105.264 149.928C105.46 150.404 105.95 150.838 106.426 151.02C107.042 151.258 107.714 151.16 108.274 150.81C108.778 150.502 109.016 150.054 109.17 149.452ZM128.63 148.822C128.252 150.068 127.482 151.048 126.348 151.622C125.102 152.266 123.576 152.336 122.274 151.818C121.042 151.314 120.118 150.264 119.67 149.018C119.18 147.688 119.236 145.854 119.824 144.566C120.258 143.6 121.028 142.774 121.98 142.312C123.114 141.752 124.486 141.682 125.69 142.074C126.754 142.41 127.846 143.39 128.336 144.384C128.966 145.686 129.078 147.38 128.63 148.822ZM127.51 148.85C127.986 147.674 128 146.176 127.51 145.028C127.132 144.174 126.446 143.488 125.578 143.124C124.682 142.746 123.674 142.732 122.778 143.082C121.896 143.432 121.154 144.104 120.748 144.958C120.272 145.994 120.286 147.702 120.692 148.78C121.014 149.634 121.728 150.446 122.568 150.824C123.478 151.23 124.668 151.23 125.564 150.866C126.488 150.488 127.146 149.774 127.51 148.85ZM139.695 141.962V152C139.401 152 138.897 152.014 138.645 152.014C138.645 149.536 138.631 144.37 138.631 141.948C138.855 141.948 139.429 141.962 139.695 141.962Z" fill="#003463" fill-opacity="0.4"/>
<defs>
<linearGradient id="paint0_linear_176_2" x1="92" y1="39" x2="92" y2="98" gradientUnits="userSpaceOnUse">
<stop stop-color="#0E58DA"/>
<stop offset="1" stop-color="#045C83"/>
</linearGradient>
<linearGradient id="paint1_linear_176_2" x1="92" y1="39" x2="92" y2="98" gradientUnits="userSpaceOnUse">
<stop stop-color="#0E59DB"/>
<stop offset="1" stop-color="#045D83"/>
</linearGradient>
<linearGradient id="paint2_linear_176_2" x1="92" y1="38" x2="92" y2="104" gradientUnits="userSpaceOnUse">
<stop stop-color="#0E58DA"/>
<stop offset="1" stop-color="#2D4889"/>
</linearGradient>
</defs>
</svg>
